HIERARCHY
ROOT Hips
{
    OFFSET 0.000000 0.000000 0.000000
    CHANNELS 6 Xposition Yposition Zposition Zrotation Xrotation Yrotation
    JOINT Spine
    {
        OFFSET -0.000000 14.517291 0.000000
        CHANNELS 3 Zrotation Xrotation Yrotation
        JOINT Spine1
        {
            OFFSET -0.000000 37.558300 0.000000
            CHANNELS 3 Zrotation Xrotation Yrotation
            JOINT Neck
            {
                OFFSET -0.000000 37.404057 3.400369
                CHANNELS 3 Zrotation Xrotation Yrotation
                JOINT Head
                {
                    OFFSET -0.000000 24.785618 -3.540803
                    CHANNELS 3 Zrotation Xrotation Yrotation
                    End Site
                    {
                        OFFSET -0.000000 35.408028 0.000000
                    }
                }
            }
            JOINT LeftShoulder
            {
                OFFSET 6.992933 33.973492 -0.192664
                CHANNELS 3 Zrotation Xrotation Yrotation
                JOINT LeftArm
                {
                    OFFSET 21.527611 0.000000 0.000000
                    CHANNELS 3 Zrotation Xrotation Yrotation
                    JOINT LeftForeArm
                    {
                        OFFSET 56.353916 0.000000 0.000000
                        CHANNELS 3 Zrotation Xrotation Yrotation
                        JOINT LeftHand
                        {
                            OFFSET 47.774071 0.000000 0.000000
                            CHANNELS 3 Zrotation Xrotation Yrotation
                            End Site
                            {
                                OFFSET 26.556021 0.000000 0.000000
                            }
                        }
                    }
                }
            }
            JOINT RightShoulder
            {
                OFFSET -7.065357 33.973492 -0.192664
                CHANNELS 3 Zrotation Xrotation Yrotation
                JOINT RightArm
                {
                    OFFSET -21.527611 0.000000 0.000000
                    CHANNELS 3 Zrotation Xrotation Yrotation
                    JOINT RightForeArm
                    {
                        OFFSET -56.353916 0.000000 0.000000
                        CHANNELS 3 Zrotation Xrotation Yrotation
                        JOINT RightHand
                        {
                            OFFSET -47.774071 0.000000 0.000000
                            CHANNELS 3 Zrotation Xrotation Yrotation
                            End Site
                            {
                                OFFSET -26.556021 0.000000 0.000000
                            }
                        }
                    }
                }
            }
        }
    }
    JOINT LeftUpLeg
    {
        OFFSET 17.704014 0.000000 0.000000
        CHANNELS 3 Zrotation Xrotation Yrotation
        JOINT LeftLeg
        {
            OFFSET -0.000000 -81.181816 0.000000
            CHANNELS 3 Zrotation Xrotation Yrotation
            JOINT LeftFoot
            {
                OFFSET -0.000000 -62.821102 0.000000
                CHANNELS 3 Zrotation Xrotation Yrotation
                JOINT LeftToeBase
                {
                    OFFSET -0.000000 -11.507608 26.556021
                    CHANNELS 3 Zrotation Xrotation Yrotation
                    End Site
                    {
                        OFFSET -0.000000 0.000000 7.081605
                    }
                }
            }
        }
    }
    JOINT RightUpLeg
    {
        OFFSET -17.704014 0.000000 0.000000
        CHANNELS 3 Zrotation Xrotation Yrotation
        JOINT RightLeg
        {
            OFFSET -0.000000 -81.181816 0.000000
            CHANNELS 3 Zrotation Xrotation Yrotation
            JOINT RightFoot
            {
                OFFSET -0.000000 -62.821102 0.000000
                CHANNELS 3 Zrotation Xrotation Yrotation
                JOINT RightToeBase
                {
                    OFFSET -0.000000 -11.507608 26.556021
                    CHANNELS 3 Zrotation Xrotation Yrotation
                    End Site
                    {
                        OFFSET -0.000000 0.000000 7.081605
                    }
                }
            }
        }
    }
}
MOTION
Frames:    4
Frame Time:    0.008333
-0.941695    155.322601    -122.647682    -5.561865    6.789982    29.748117    1.834398    1.369065    -1.295217    -4.632466    -0.754079    -0.453566    5.735052    -5.491790    -14.932787    10.260870    4.103331    -15.622142    6.592337    7.646906    -17.611248    -34.042603    22.284801    -46.641304    -6.758288    -11.617584    -114.659531    3.294713    -21.862061    -4.635464    -14.185000    -5.602170    -4.915052    22.727783    -22.858969    56.702751    -17.216555    -17.786633    43.897949    0.901819    -10.765450    31.040733    14.729724    -11.405152    4.668146    -13.238804    35.737934    -17.497147    5.965395    -26.077597    45.046638    0.000000    0.000000    0.000000    -14.119805    -37.542847    -12.592789    12.265836    25.975368    -13.964568    -1.203174    10.589254    -8.587440    0.000000    0.000000    0.000000    
-0.770670    155.252655    -122.856796    -5.503328    6.392029    29.795425    1.777352    1.325444    -1.292258    -4.671457    -0.760889    -0.453627    5.646200    -5.442535    -15.019711    10.406809    4.222956    -15.688927    6.597908    7.684207    -17.619890    -34.058178    22.293034    -46.652451    -6.831161    -11.451861    -114.735222    3.417378    -21.830847    -4.627503    -14.180180    -5.579989    -4.949150    22.665983    -22.749609    56.618225    -17.396067    -17.781744    43.853001    0.869215    -10.703639    31.111607    14.817430    -11.201292    4.589302    -13.339023    36.016750    -17.536030    6.203025    -26.206289    45.089409    0.000000    0.000000    0.000000    -14.091290    -37.100876    -12.561286    12.378868    25.809980    -13.872250    -1.172630    10.645686    -8.757484    0.000000    0.000000    0.000000    
-0.617398    155.181122    -123.053886    -5.462063    6.010370    29.833902    2.198791    1.423826    -1.759565    -5.206030    -1.043722    -0.623521    4.944788    -5.527235    -14.909580    11.114738    4.851867    -15.427422    6.190258    7.663679    -16.780508    -33.642315    22.681105    -46.417591    -6.833291    -11.515907    -115.133438    3.501787    -21.971962    -4.524968    -14.397134    -5.419140    -4.529563    23.340204    -22.857668    56.985912    -17.451708    -17.572247    44.101692    0.592048    -10.498626    30.809763    14.916645    -11.001319    4.530476    -13.424732    36.265324    -17.594784    6.455219    -26.333860    45.148354    0.000000    0.000000    0.000000    -13.965224    -36.731754    -12.598013    12.272161    25.735231    -13.853529    -1.153963    10.701990    -8.666878    0.000000    0.000000    0.000000    
-0.455342    155.106277    -123.268494    -5.404838    5.643180    29.898069    2.161141    1.362183    -1.798185    -5.277906    -1.035877    -0.637252    4.910124    -5.524288    -14.954562    11.186095    5.028256    -15.477963    6.168036    7.649753    -16.697592    -33.612267    22.795424    -46.437424    -6.860940    -11.459665    -115.216034    3.572044    -21.980076    -4.581983    -14.384725    -5.370814    -4.496916    23.330280    -22.849699    56.928066    -17.559967    -17.565413    44.103317    0.417050    -10.493991    30.906622    14.973226    -10.821500    4.453677    -13.475379    36.524921    -17.679369    6.694394    -26.468525    45.225468    0.000000    0.000000    0.000000    -13.941071    -36.370308    -12.537258    12.334016    25.657703    -13.932755    -1.091529    10.766793    -8.710443    0.000000    0.000000    0.000000    
